# File created by Blade
# Date/Time:  Tue Sep 30 19:15:20 2014
#---------------------------------------------------------
:version 1.10
:name HOM
:units
  mass 1.0
  length 1.000000
  angle deg
:documentation
     Acclaim Skeleton File
:root
   axis xyz
   order TX TY TZ RX RY RZ
   position 0.000000 0.000000 0.000000
   orientation 0 0 0
:bonedata
   begin
      id 1
      name Spine_dum
      direction 0.000000 1.000000 0.000000
      length 7.508935
      axis 0.0 0.0 0.0 xyz
   end
   begin
      id 2
      name LeftUpLeg_dum
      direction 1.000000 0.000000 0.000000
      length 3.000554
      axis 0.0 0.0 0.0 xyz
   end
   begin
      id 3
      name RightUpLeg_dum
      direction -1.000000 0.000000 0.000000
      length 3.000554
      axis 0.0 0.0 0.0 xyz
   end
   begin
      id 4
      name Spine
      direction 0.000000 1.000000 0.000000
      length 0.000000
      axis 0.0 0.0 0.0 xyz
      dof rx ry rz
   end
   begin
      id 5
      name Spine_dum1
      direction 0.000000 1.000000 0.000000
      length 13.861122
      axis 0.0 0.0 0.0 xyz
   end
   begin
      id 6
      name Spine_dum2
      direction 0.000000 1.000000 0.000000
      length 8.204763
      axis 0.0 0.0 0.0 xyz
   end
   begin
      id 7
      name Spine_dum3
      direction 0.000000 1.000000 0.000000
      length 8.204763
      axis 0.0 0.0 0.0 xyz
   end
   begin
      id 8
      name Head
      direction 0.000000 1.000000 0.000000
      length 4.527541
      axis 0.0 0.0 0.0 xyz
      dof rx ry rz
   end
   begin
      id 9
      name LeftShoulder
      direction 1.000000 0.000000 0.000000
      length 6.635947
      axis 0.0 0.0 0.0 xyz
      dof rx ry rz
   end
   begin
      id 10
      name LeftArm
      direction 1.000000 0.000000 0.000000
      length 10.274200
      axis 0.0 0.0 0.0 xyz
      dof rx ry rz
   end
   begin
      id 11
      name LeftForeArm
      direction 1.000000 0.000000 0.000000
      length 8.522133
      axis 0.0 0.0 0.0 xyz
      dof ry rz rx
   end
   begin
      id 12
      name LeftHand
      direction 0.000000 0.000000 0.000000
      length 0.000000
      axis 0.0 0.0 0.0 xyz
      dof rx ry rz
   end
   begin
      id 13
      name LeftHand_dum1
      direction 0.000000 0.000000 0.000000
      length 0.000000
      axis 0.0 0.0 0.0 xyz
   end
   begin
      id 14
      name LeftHand_dum2
      direction 1.000000 0.000000 0.000000
      length 3.936992
      axis 0.0 0.0 0.0 xyz
   end
   begin
      id 15
      name LeftHandThumb1
      direction 0.000000 0.000000 1.000000
      length 3.936992
      axis 0.0 0.0 0.0 xyz
      dof rx rz ry
   end
   begin
      id 16
      name RightShoulder
      direction -1.000000 0.000000 0.000000
      length 6.635947
      axis 0.0 0.0 0.0 xyz
      dof rx ry rz
   end
   begin
      id 17
      name RightArm
      direction -1.000000 0.000000 0.000000
      length 10.274200
      axis 0.0 0.0 0.0 xyz
      dof rx ry rz
   end
   begin
      id 18
      name RightForeArm
      direction -1.000000 0.000000 0.000000
      length 8.522133
      axis 0.0 0.0 0.0 xyz
      dof ry rz rx
   end
   begin
      id 19
      name RightHand
      direction 0.000000 0.000000 0.000000
      length 0.000000
      axis 0.0 0.0 0.0 xyz
      dof rx ry rz
   end
   begin
      id 20
      name RightHand_dum1
      direction 0.000000 0.000000 0.000000
      length 0.000000
      axis 0.0 0.0 0.0 xyz
   end
   begin
      id 21
      name RightHand_dum2
      direction -1.000000 0.000000 0.000000
      length 3.936992
      axis 0.0 0.0 0.0 xyz
   end
   begin
      id 22
      name RightHandThumb1
      direction 0.000000 0.000000 1.000000
      length 3.936992
      axis 0.0 0.0 0.0 xyz
      dof rx rz ry
   end
   begin
      id 23
      name LeftUpLeg
      direction 0.000000 -1.000000 0.000000
      length 16.490817
      axis 0.0 0.0 0.0 xyz
      dof rx ry rz
   end
   begin
      id 24
      name LeftLeg
      direction 0.000000 -1.000000 0.000000
      length 14.556551
      axis 0.0 0.0 0.0 xyz
      dof rx ry rz
   end
   begin
      id 25
      name LeftFoot
      direction 0.000000 -0.258818 0.965926
      length 4.831105
      axis 0.0 0.0 0.0 xyz
      dof rx ry rz
   end
   begin
      id 26
      name LeftToeBase
      direction 0.000000 0.000000 1.000000
      length 2.952744
      axis 0.0 0.0 0.0 xyz
      dof rx ry rz
   end
   begin
      id 27
      name RightUpLeg
      direction 0.000000 -1.000000 0.000000
      length 16.490817
      axis 0.0 0.0 0.0 xyz
      dof rx ry rz
   end
   begin
      id 28
      name RightLeg
      direction 0.000000 -1.000000 0.000000
      length 14.556551
      axis 0.0 0.0 0.0 xyz
      dof rx ry rz
   end
   begin
      id 29
      name RightFoot
      direction 0.000000 -0.258818 0.965926
      length 4.831105
      axis 0.0 0.0 0.0 xyz
      dof rx ry rz
   end
   begin
      id 30
      name RightToeBase
      direction 0.000000 0.000000 1.000000
      length 2.952744
      axis 0.0 0.0 0.0 xyz
      dof rx ry rz
   end
:hierarchy
   begin
      root Spine_dum LeftUpLeg_dum RightUpLeg_dum
      Spine_dum Spine
      LeftUpLeg_dum LeftUpLeg
      RightUpLeg_dum RightUpLeg
      Spine Spine_dum1 Spine_dum2 Spine_dum3
      Spine_dum1 Head
      Spine_dum2 LeftShoulder
      Spine_dum3 RightShoulder
      LeftShoulder LeftArm
      LeftArm LeftForeArm
      LeftForeArm LeftHand
      LeftHand LeftHand_dum1 LeftHand_dum2
      LeftHand_dum1 LeftHandThumb1
      RightShoulder RightArm
      RightArm RightForeArm
      RightForeArm RightHand
      RightHand RightHand_dum1 RightHand_dum2
      RightHand_dum1 RightHandThumb1
      LeftUpLeg LeftLeg
      LeftLeg LeftFoot
      LeftFoot LeftToeBase
      RightUpLeg RightLeg
      RightLeg RightFoot
      RightFoot RightToeBase
   end

# File created by Blade
# Date/Time:  Tue Sep 30 19:15:05 2014
# Frame Rate: 120.000 fps
#------------------------------------------------------
:FULLY-SPECIFIED
:DEGREES
551
root -2.565895 33.592931 -2.714195 3.434946 26.015496 -12.447521
Spine -15.895844 12.149024 12.902561
Head 3.907628 -13.618336 5.456074
LeftShoulder 23.483392 12.552441 17.002851
LeftArm -8.322019 -13.070710 -78.467973
LeftForeArm -119.557369 5.092384 -2.881634
LeftHand -0.000008 26.444662 11.218640
LeftHandThumb1 30.357831 13.997178 22.438692
RightShoulder -7.358548 -23.559348 -20.314509
RightArm 24.024484 -15.656233 77.962071
RightForeArm 28.877061 -13.906925 23.547437
RightHand -0.000011 -6.623696 6.986324
RightHandThumb1 30.482666 -12.916435 -20.793814
LeftUpLeg -11.795763 -3.953338 7.897283
LeftLeg 10.925300 0.000000 0.000000
LeftFoot -6.744833 -8.087700 -10.638755
LeftToeBase 0.353000 -0.000000 -0.000000
RightUpLeg -71.973047 10.920529 -4.305318
RightLeg 135.468597 -0.000000 0.000000
RightFoot 41.533174 11.704835 11.432719
RightToeBase 26.415600 -0.000000 -0.000000
552
root -2.570495 33.583131 -2.717495 3.330070 26.178091 -12.352464
Spine -15.717556 11.996279 12.798094
Head 3.859816 -13.621235 5.557311
LeftShoulder 23.510099 12.501893 17.047788
LeftArm -8.448497 -13.162187 -78.315124
LeftForeArm -119.452103 5.086043 -2.865772
LeftHand -0.000063 26.543642 11.357591
LeftHandThumb1 30.357831 13.997178 22.438692
RightShoulder -7.415637 -23.549628 -20.264856
RightArm 24.026329 -15.627490 77.946735
RightForeArm 28.702276 -13.832731 23.589081
RightHand -0.000024 -6.617362 6.937631
RightHandThumb1 30.482666 -12.916435 -20.793814
LeftUpLeg -11.721884 -4.015969 7.807936
LeftLeg 10.987300 -0.000000 -0.000000
LeftFoot -6.760317 -8.226797 -10.632429
LeftToeBase 0.349300 -0.000000 -0.000000
RightUpLeg -72.278525 10.801306 -4.174249
RightLeg 135.278503 -0.000000 0.000000
RightFoot 41.334354 11.414141 11.359718
RightToeBase 26.435699 0.000000 0.000000
553
root -2.576295 33.573732 -2.722194 3.234856 26.345910 -12.233284
Spine -15.534293 11.812520 12.650335
Head 3.804349 -13.629819 5.715794
LeftShoulder 23.477633 12.477854 17.114114
LeftArm -8.591530 -13.203485 -78.198422
LeftForeArm -119.343649 4.990777 -2.799917
LeftHand 0.000027 26.544385 11.293521
LeftHandThumb1 30.357831 13.997178 22.438692
RightShoulder -7.478072 -23.525650 -20.161057
RightArm 23.979021 -15.593119 77.917233
RightForeArm 28.524167 -13.778750 23.663978
RightHand 0.000018 -6.582890 6.921710
RightHandThumb1 30.482666 -12.916435 -20.793814
LeftUpLeg -11.639255 -4.054466 7.695331
LeftLeg 11.024800 0.000000 0.000000
LeftFoot -6.755579 -8.394070 -10.670498
LeftToeBase 0.382400 -0.000000 0.000000
RightUpLeg -72.637355 10.682172 -4.072857
RightLeg 135.052094 -0.000000 -0.000000
RightFoot 41.110043 11.201178 11.175533
RightToeBase 26.586201 0.000000 0.000000
554
root -2.584595 33.564233 -2.726195 3.113722 26.526429 -12.120319
Spine -15.312361 11.591749 12.510230
Head 3.738877 -13.615274 5.885103
LeftShoulder 23.429552 12.465134 17.178135
LeftArm -8.668444 -13.252545 -77.995568
LeftForeArm -119.228989 4.893488 -2.732726
LeftHand 0.000022 26.622577 11.581767
LeftHandThumb1 30.357831 13.997178 22.438692
RightShoulder -7.553234 -23.506518 -20.048287
RightArm 23.983571 -15.536816 77.898149
RightForeArm 28.360593 -13.698859 23.687452
RightHand 0.000019 -6.584174 6.905497
RightHandThumb1 30.482666 -12.916435 -20.793814
LeftUpLeg -11.540072 -4.063824 7.591930
LeftLeg 11.076800 -0.000000 -0.000000
LeftFoot -6.777580 -8.627175 -10.832233
LeftToeBase 0.601700 -0.000000 0.000000
RightUpLeg -73.015525 10.555767 -3.950621
RightLeg 134.806107 -0.000000 0.000000
RightFoot 40.802804 11.048521 10.906795
RightToeBase 26.768200 -0.000000 -0.000000
555
root -2.592395 33.554132 -2.726695 2.949867 26.699079 -12.014826
Spine -15.049449 11.373740 12.381316
Head 3.642602 -13.617659 6.076924
LeftShoulder 23.374383 12.424697 17.254284
LeftArm -8.773342 -13.284908 -77.859280
LeftForeArm -119.117888 4.834671 -2.687753
LeftHand -0.000006 26.712484 11.831104
LeftHandThumb1 30.357831 13.997178 22.438692
RightShoulder -7.648355 -23.474145 -19.930435
RightArm 23.961620 -15.516224 77.873799
RightForeArm 28.223258 -13.652798 23.738916
RightHand 0.000041 -6.706052 6.854331
RightHandThumb1 30.482666 -12.916435 -20.793814
LeftUpLeg -11.382745 -4.011137 7.479165
LeftLeg 11.100000 -0.000000 -0.000000
LeftFoot -6.751374 -8.878704 -10.786316
LeftToeBase 0.497100 -0.000000 -0.000000
RightUpLeg -73.412975 10.446195 -3.847173
RightLeg 134.520401 0.000000 0.000000
RightFoot 40.593993 10.875271 10.911388
RightToeBase 27.296700 -0.000000 -0.000000
556
root -2.601195 33.544332 -2.725995 2.756796 26.880855 -11.906578
Spine -14.736032 11.142935 12.244465
Head 3.590481 -13.609052 6.254160
LeftShoulder 23.346799 12.393901 17.328198
LeftArm -8.869007 -13.360590 -77.698924
LeftForeArm -119.007483 4.791884 -2.652011
LeftHand -0.000041 26.727988 11.954015
LeftHandThumb1 30.357831 13.997178 22.438692
RightShoulder -7.723469 -23.485932 -19.798129
RightArm 23.965354 -15.438712 77.859492
RightForeArm 28.068075 -13.560801 23.736344
RightHand -0.000046 -6.578211 7.089802
RightHandThumb1 30.482666 -12.916435 -20.793814
LeftUpLeg -11.202522 -3.985188 7.365614
LeftLeg 11.139700 -0.000000 -0.000000
LeftFoot -6.743960 -9.111613 -10.774520
LeftToeBase 0.368900 -0.000000 -0.000000
RightUpLeg -73.828053 10.337495 -3.727875
RightLeg 134.188004 -0.000000 -0.000000
RightFoot 40.421302 10.737652 10.870021
RightToeBase 27.457500 -0.000000 -0.000000
557
root -2.608795 33.535234 -2.725995 2.547208 27.082511 -11.814485
Spine -14.416457 10.875404 12.148261
Head 3.533166 -13.596721 6.400025
LeftShoulder 23.267311 12.383097 17.383814
LeftArm -8.945384 -13.392694 -77.540544
LeftForeArm -118.895803 4.680522 -2.578725
LeftHand 0.000030 26.726406 11.994206
LeftHandThumb1 30.357831 13.997178 22.438692
RightShoulder -7.822571 -23.447602 -19.701688
RightArm 23.910479 -15.411690 77.875902
RightForeArm 27.894400 -13.493405 23.787614
RightHand 0.000004 -6.601663 7.108243
RightHandThumb1 30.482666 -12.916435 -20.793814
LeftUpLeg -10.998507 -3.990586 7.263530
LeftLeg 11.138400 -0.000000 -0.000000
LeftFoot -6.731574 -9.309446 -10.820941
LeftToeBase 0.429200 0.000000 0.000000
RightUpLeg -74.270904 10.177884 -3.565324
RightLeg 133.806198 0.000000 0.000000
RightFoot 40.254038 10.622884 10.626935
RightToeBase 27.489700 -0.000000 0.000000
558
root -2.614895 33.523633 -2.728095 2.329367 27.307107 -11.698738
Spine -14.074038 10.591076 12.033826
Head 3.465536 -13.570457 6.539937
LeftShoulder 23.166205 12.353144 17.448044
LeftArm -9.011903 -13.430541 -77.426251
LeftForeArm -118.791331 4.637433 -2.544082
LeftHand -0.000040 26.773851 12.066314
LeftHandThumb1 30.357831 13.997178 22.438692
RightShoulder -7.911785 -23.431517 -19.634988
RightArm 23.888505 -15.366368 77.923200
RightForeArm 27.725875 -13.420203 23.825455
RightHand 0.000026 -6.606227 7.137884
RightHandThumb1 30.482666 -12.916435 -20.793814
LeftUpLeg -10.804708 -4.075615 7.142859
LeftLeg 11.186500 -0.000000 -0.000000
LeftFoot -6.750724 -9.461719 -10.811929
LeftToeBase 0.355900 0.000000 0.000000
RightUpLeg -74.769701 9.975332 -3.436617
RightLeg 133.397995 0.000000 0.000000
RightFoot 40.236814 10.331432 10.692692
RightToeBase 27.135000 -0.000000 -0.000000
559
root -2.627095 33.514635 -2.722894 2.057145 27.502039 -11.658945
Spine -13.711149 10.327550 11.988243
Head 3.416484 -13.544849 6.675576
LeftShoulder 23.220000 12.293726 17.497910
LeftArm -9.139722 -13.569314 -77.279717
LeftForeArm -118.717132 4.578767 -2.504316
LeftHand 0.000044 26.800207 12.103884
LeftHandThumb1 30.357831 13.997178 22.438692
RightShoulder -7.968920 -23.430827 -19.574316
RightArm 23.854501 -15.292120 77.979784
RightForeArm 27.556094 -13.359758 23.884336
RightHand -0.000020 -6.674399 7.222842
RightHandThumb1 30.482666 -12.916435 -20.793814
LeftUpLeg -10.587060 -4.012824 7.085532
LeftLeg 11.258000 -0.000000 -0.000000
LeftFoot -6.787933 -9.695264 -10.829648
LeftToeBase 0.359100 0.000000 0.000000
RightUpLeg -75.282515 9.843808 -3.239020
RightLeg 132.914703 0.000000 0.000000
RightFoot 40.154888 9.964569 10.912864
RightToeBase 25.163000 -0.000000 -0.000000
560
root -2.636295 33.504533 -2.721294 1.803515 27.699986 -11.566254
Spine -13.339733 10.064044 11.887624
Head 3.366097 -13.519886 6.818960
LeftShoulder 23.137110 12.256599 17.546465
LeftArm -9.178800 -13.628654 -77.070129
LeftForeArm -118.618466 4.514903 -2.459433
LeftHand -0.000047 26.845781 12.232943
LeftHandThumb1 30.357831 13.997178 22.438692
RightShoulder -8.031312 -23.423217 -19.520398
RightArm 23.790877 -15.245452 78.063953
RightForeArm 27.388193 -13.252069 23.867634
RightHand 0.000032 -6.593891 7.190620
RightHandThumb1 30.482666 -12.916435 -20.793814
LeftUpLeg -10.327901 -4.177567 6.991820
LeftLeg 11.245600 -0.000000 -0.000000
LeftFoot -6.814790 -9.695156 -10.805569
LeftToeBase 0.200300 -0.000000 -0.000000
RightUpLeg -75.852118 9.656517 -3.039282
RightLeg 132.385300 -0.000000 -0.000000
RightFoot 39.846669 9.573582 11.008115
RightToeBase 25.118999 -0.000000 0.000000
561
root -2.645095 33.494432 -2.716995 1.524262 27.887826 -11.496507
Spine -12.951852 9.799702 11.825679
Head 3.323532 -13.487423 6.910943
LeftShoulder 23.012820 12.225358 17.571239
LeftArm -9.231154 -13.645693 -76.862507
LeftForeArm -118.535833 4.434739 -2.407634
LeftHand -0.000037 26.920944 12.280893
LeftHandThumb1 30.357831 13.997178 22.438692
RightShoulder -8.113689 -23.405273 -19.482363
RightArm 23.718542 -15.231490 78.143507
RightForeArm 27.253306 -13.173935 23.866894
RightHand 0.000024 -6.551945 7.245277
RightHandThumb1 30.482666 -12.916435 -20.793814
LeftUpLeg -10.080922 -4.193838 6.907432
LeftLeg 11.306300 -0.000000 -0.000000
LeftFoot -6.848114 -9.859700 -10.878319
LeftToeBase 0.185100 0.000000 0.000000
RightUpLeg -76.437987 9.492363 -2.862421
RightLeg 131.797501 -0.000000 0.000000
RightFoot 39.711898 9.421068 11.119988
RightToeBase 24.148899 -0.000000 -0.000000
562
root -2.655695 33.484834 -2.714195 1.195444 28.127481 -11.463330
Spine -12.516493 9.513157 11.811010
Head 3.245514 -13.484390 6.983479
LeftShoulder 22.894831 12.162570 17.578662
LeftArm -9.258666 -13.694002 -76.684331
LeftForeArm -118.458511 4.313098 -2.334279
LeftHand 0.000004 26.956882 12.388496
LeftHandThumb1 30.357831 13.997178 22.438692
RightShoulder -8.210937 -23.391552 -19.447414
RightArm 23.640149 -15.242282 78.210026
RightForeArm 27.143313 -13.111294 23.867740
RightHand -0.000008 -6.584535 7.136706
RightHandThumb1 30.482666 -12.916435 -20.793814
LeftUpLeg -9.850817 -4.157391 6.847393
LeftLeg 11.433600 -0.000000 -0.000000
LeftFoot -6.882443 -10.125536 -10.905466
LeftToeBase 0.182500 0.000000 0.000000
RightUpLeg -77.017136 9.224905 -2.556919
RightLeg 131.159698 0.000000 0.000000
RightFoot 39.521009 9.412901 10.820252
RightToeBase 23.668100 -0.000000 -0.000000
